<?xml version="1.0" encoding="UTF-8"?>
<svg width="32px" height="32px" viewBox="0 0 32 32" version="1.1" xmlns="http://www.w3.org/2000/svg" xmlns:xlink="http://www.w3.org/1999/xlink">
    <title>6DA3BB71-73B0-42E4-9674-00BB8DB2FE09@3x</title>
    <g id="✅-Homepage" stroke="none" stroke-width="1" fill="none" fill-rule="evenodd">
        <g id="01-agree-homepage" transform="translate(-1348.000000, -29.000000)">
            <g id="Group-18" transform="translate(1302.000000, 20.000000)">
                <g id="component/avatar/large/empty" transform="translate(46.000000, 9.000000)">
                    <rect id="Rectangle-Copy" fill="#E6E6E6" x="0" y="0" width="32" height="32" rx="4"></rect>
                    <path d="M22.08352,18.00592 C21.2961067,17.4252267 20.42944,16.96032 19.51008,16.6254933 C20.2154667,15.9618667 20.71616,15.11024 20.9531733,14.1712 C21.1901333,13.23216 21.1534933,12.24496 20.8474667,11.32608 C20.5414933,10.4072 19.9789867,9.59504 19.2263467,8.98554667 C18.4737067,8.37610667 17.5623467,7.99466667 16.5999467,7.8864 C16.4013333,7.85706667 16.2006933,7.84405333 15.9999467,7.84741333 C15.7992,7.84405333 15.59856,7.85712 15.3999467,7.8864 C14.4376,7.99482667 13.5264,8.37626667 12.7738133,8.98581333 C12.02128,9.59530667 11.4588267,10.4074133 11.1528533,11.3261867 C10.84688,12.2450133 10.8101867,13.2322133 11.0470933,14.1712 C11.284,15.1101867 11.7845867,15.9618133 12.48976,16.6254933 C11.5706133,16.9604267 10.7041067,17.42528 9.91674667,18.00592 C9.592,18.2445867 9.32794667,18.55632 9.14597333,18.9158933 C8.96394667,19.2754667 8.86912,19.6728533 8.86912,20.07584 C8.86912,20.47888 8.96394667,20.8762133 9.14597333,21.23584 C9.32794667,21.5954133 9.592,21.9071467 9.91674667,22.14576 C11.6773333,23.4488 13.8098133,24.1520533 16.00016,24.1520533 C18.1904533,24.1520533 20.3229333,23.4488 22.08352,22.14576 C22.4082133,21.9070933 22.67216,21.59536 22.8541333,21.2357333 C23.0360533,20.87616 23.1308267,20.4788267 23.1308267,20.07584 C23.1308267,19.6728533 23.0360533,19.27552 22.8541333,18.9159467 C22.67216,18.5563733 22.4082133,18.24464 22.08352,18.00592 Z" id="Path" fill="#FFFFFF" fill-rule="nonzero"></path>
                </g>
            </g>
        </g>
    </g>
</svg>